REM DIRINDEX 1\2,1\3,1\4,1\6,1\5\7,1\5\8
REM DIRNAME folder01,folder02,folder03,folder04,folder05,folder06,folder07,folder08
TITLE ""
FILE "DB4500_5th_6C_31.mp3" MP3
  TRACK 01 AUDIO
    TITLE "0:"
    INDEX 01 00:00:00
  TRACK 02 AUDIO
    TITLE "2:cjc114_4319"
    INDEX 01 00:00:01
  TRACK 03 AUDIO
    TITLE "0:"
    INDEX 01 00:01:07
  TRACK 04 AUDIO
    TITLE "3:cjc114_4320"
    INDEX 01 00:01:28
  TRACK 05 AUDIO
    TITLE "0:"
    INDEX 01 00:02:22
  TRACK 06 AUDIO
    TITLE "4:cjc114_4321"
    INDEX 01 00:02:43
  TRACK 07 AUDIO
    TITLE "0:"
    INDEX 01 00:06:06
  TRACK 08 AUDIO
    TITLE "2:cjc114_4322"
    INDEX 01 00:06:51
  TRACK 09 AUDIO
    TITLE "0:"
    INDEX 01 00:08:05
  TRACK 10 AUDIO
    TITLE "3:cjc114_4323"
    INDEX 01 00:08:26
  TRACK 11 AUDIO
    TITLE "0:"
    INDEX 01 00:09:38
  TRACK 12 AUDIO
    TITLE "4:cjc114_4324"
    INDEX 01 00:09:61
  TRACK 13 AUDIO
    TITLE "0:"
    INDEX 01 00:13:41
  TRACK 14 AUDIO
    TITLE "2:cjc114_4325"
    INDEX 01 00:14:11
  TRACK 15 AUDIO
    TITLE "0:"
    INDEX 01 00:15:13
  TRACK 16 AUDIO
    TITLE "3:cjc114_4326"
    INDEX 01 00:15:34
  TRACK 17 AUDIO
    TITLE "0:"
    INDEX 01 00:16:57
  TRACK 18 AUDIO
    TITLE "4:cjc114_4327"
    INDEX 01 00:17:08
  TRACK 19 AUDIO
    TITLE "0:"
    INDEX 01 00:20:43
  TRACK 20 AUDIO
    TITLE "2:cjc114_4328"
    INDEX 01 00:21:13
  TRACK 21 AUDIO
    TITLE "0:"
    INDEX 01 00:22:23
  TRACK 22 AUDIO
    TITLE "3:cjc114_4329"
    INDEX 01 00:22:42
  TRACK 23 AUDIO
    TITLE "0:"
    INDEX 01 00:23:59
  TRACK 24 AUDIO
    TITLE "4:cjc114_4330"
    INDEX 01 00:24:06
  TRACK 25 AUDIO
    TITLE "0:"
    INDEX 01 00:27:39
  TRACK 26 AUDIO
    TITLE "2:cjc114_4331"
    INDEX 01 00:28:12
  TRACK 27 AUDIO
    TITLE "0:"
    INDEX 01 00:29:21
  TRACK 28 AUDIO
    TITLE "3:cjc114_4332"
    INDEX 01 00:29:40
  TRACK 29 AUDIO
    TITLE "0:"
    INDEX 01 00:30:61
  TRACK 30 AUDIO
    TITLE "4:cjc114_4333"
    INDEX 01 00:31:08
  TRACK 31 AUDIO
    TITLE "0:"
    INDEX 01 00:35:41
  TRACK 32 AUDIO
    TITLE "2:cjc114_4334"
    INDEX 01 00:36:11
  TRACK 33 AUDIO
    TITLE "0:"
    INDEX 01 00:37:32
  TRACK 34 AUDIO
    TITLE "3:cjc114_4335"
    INDEX 01 00:37:56
  TRACK 35 AUDIO
    TITLE "0:"
    INDEX 01 00:39:00
  TRACK 36 AUDIO
    TITLE "4:cjc114_4336"
    INDEX 01 00:39:23
  TRACK 37 AUDIO
    TITLE "0:"
    INDEX 01 00:41:71
  TRACK 38 AUDIO
    TITLE "2:cjc114_4337"
    INDEX 01 00:42:37
  TRACK 39 AUDIO
    TITLE "0:"
    INDEX 01 00:43:42
  TRACK 40 AUDIO
    TITLE "3:cjc114_4338"
    INDEX 01 00:43:64
  TRACK 41 AUDIO
    TITLE "0:"
    INDEX 01 00:45:04
  TRACK 42 AUDIO
    TITLE "4:cjc114_4339"
    INDEX 01 00:45:22
  TRACK 43 AUDIO
    TITLE "0:"
    INDEX 01 00:49:06
  TRACK 44 AUDIO
    TITLE "2:cjc114_4340"
    INDEX 01 00:49:47
  TRACK 45 AUDIO
    TITLE "0:"
    INDEX 01 00:50:52
  TRACK 46 AUDIO
    TITLE "3:cjc114_4341"
    INDEX 01 00:51:03
  TRACK 47 AUDIO
    TITLE "0:"
    INDEX 01 00:52:06
  TRACK 48 AUDIO
    TITLE "4:cjc114_4342"
    INDEX 01 00:52:28
  TRACK 49 AUDIO
    TITLE "0:"
    INDEX 01 00:55:40
  TRACK 50 AUDIO
    TITLE "2:cjc114_4343"
    INDEX 01 00:56:16
  TRACK 51 AUDIO
    TITLE "0:"
    INDEX 01 00:57:23
  TRACK 52 AUDIO
    TITLE "3:cjc114_4344"
    INDEX 01 00:57:45
  TRACK 53 AUDIO
    TITLE "0:"
    INDEX 01 00:59:14
  TRACK 54 AUDIO
    TITLE "4:cjc114_4345"
    INDEX 01 00:59:36
  TRACK 55 AUDIO
    TITLE "0:"
    INDEX 01 01:01:62
  TRACK 56 AUDIO
    TITLE "2:cjc114_4346"
    INDEX 01 01:02:32
  TRACK 57 AUDIO
    TITLE "0:"
    INDEX 01 01:03:37
  TRACK 58 AUDIO
    TITLE "3:cjc114_4347"
    INDEX 01 01:03:59
  TRACK 59 AUDIO
    TITLE "0:"
    INDEX 01 01:05:17
  TRACK 60 AUDIO
    TITLE "4:cjc114_4348"
    INDEX 01 01:05:44
  TRACK 61 AUDIO
    TITLE "0:"
    INDEX 01 01:07:49
  TRACK 62 AUDIO
    TITLE "2:cjc114_4349"
    INDEX 01 01:08:17
  TRACK 63 AUDIO
    TITLE "0:"
    INDEX 01 01:09:22
  TRACK 64 AUDIO
    TITLE "3:cjc114_4350"
    INDEX 01 01:09:42
  TRACK 65 AUDIO
    TITLE "0:"
    INDEX 01 01:10:57
  TRACK 66 AUDIO
    TITLE "4:cjc114_4351"
    INDEX 01 01:11:05
  TRACK 67 AUDIO
    TITLE "0:"
    INDEX 01 01:14:53
  TRACK 68 AUDIO
    TITLE "2:cjc114_4352"
    INDEX 01 01:15:23
  TRACK 69 AUDIO
    TITLE "0:"
    INDEX 01 01:16:24
  TRACK 70 AUDIO
    TITLE "3:cjc114_4353"
    INDEX 01 01:16:46
  TRACK 71 AUDIO
    TITLE "0:"
    INDEX 01 01:17:55
  TRACK 72 AUDIO
    TITLE "4:cjc114_4354"
    INDEX 01 01:18:00
  TRACK 73 AUDIO
    TITLE "0:"
    INDEX 01 01:20:48
  TRACK 74 AUDIO
    TITLE "2:cjc114_4355"
    INDEX 01 01:21:16
  TRACK 75 AUDIO
    TITLE "0:"
    INDEX 01 01:22:21
  TRACK 76 AUDIO
    TITLE "3:cjc114_4356"
    INDEX 01 01:22:48
  TRACK 77 AUDIO
    TITLE "0:"
    INDEX 01 01:23:52
  TRACK 78 AUDIO
    TITLE "4:cjc114_4357"
    INDEX 01 01:23:71
  TRACK 79 AUDIO
    TITLE "0:"
    INDEX 01 01:26:13
  TRACK 80 AUDIO
    TITLE "2:cjc114_4358"
    INDEX 01 01:26:58
  TRACK 81 AUDIO
    TITLE "0:"
    INDEX 01 01:27:67
  TRACK 82 AUDIO
    TITLE "3:cjc114_4359"
    INDEX 01 01:28:14
  TRACK 83 AUDIO
    TITLE "0:"
    INDEX 01 01:29:11
  TRACK 84 AUDIO
    TITLE "4:cjc114_4360"
    INDEX 01 01:29:35
  TRACK 85 AUDIO
    TITLE "0:"
    INDEX 01 01:31:53
